<?xml version="1.0" encoding="UTF-8"?>
<!DOCTYPE svg PUBLIC "-//W3C//DTD SVG 1.1//EN" "http://www.w3.org/Graphics/SVG/1.1/DTD/svg11.dtd">
<!-- Creator: CorelDRAW -->
<svg xmlns="http://www.w3.org/2000/svg" xml:space="preserve" width="6.82666in" height="6.82666in" style="shape-rendering:geometricPrecision; text-rendering:geometricPrecision; image-rendering:optimizeQuality; fill-rule:evenodd; clip-rule:evenodd"
viewBox="0 0 6.82666 6.82666"
 xmlns:xlink="http://www.w3.org/1999/xlink">
 <defs>
  <style type="text/css">
   <![CDATA[
    .fil5 {fill:none}
    .fil4 {fill:#949494}
    .fil1 {fill:#AED581}
    .fil2 {fill:#F45A52}
    .fil3 {fill:#FECA5F}
    .fil0 {fill:#333333;fill-rule:nonzero}
   ]]>
  </style>
 </defs>
 <g id="Layer_x0020_1">
  <metadata id="CorelCorpID_0Corel-Layer"/>
  <path class="fil0" d="M3.41333 1.86666c0.689827,0 1.31627,0.103587 1.77143,0.271059 0.487213,0.179268 0.788567,0.439531 0.788567,0.738295 0,0.29876 -0.301354,0.559028 -0.788567,0.738295 -0.455161,0.167472 -1.08161,0.271059 -1.77143,0.271059 -0.689827,0 -1.31627,-0.103587 -1.77143,-0.271059 -0.487213,-0.179268 -0.788567,-0.439535 -0.788567,-0.738295 0,-0.298764 0.301354,-0.559028 0.788567,-0.738295 0.455161,-0.167472 1.08161,-0.271059 1.77143,-0.271059zm1.6981 0.471059c-0.432764,-0.159232 -1.033,-0.25772 -1.6981,-0.25772 -0.665106,0 -1.26534,0.0984882 -1.6981,0.25772 -0.400705,0.147437 -0.648559,0.338524 -0.648559,0.538295 0,0.199772 0.247854,0.390858 0.648559,0.538295 0.432764,0.159232 1.033,0.25772 1.6981,0.25772 0.665106,0 1.26534,-0.0984882 1.6981,-0.25772 0.400705,-0.147437 0.648559,-0.338524 0.648559,-0.538295 0,-0.199772 -0.247854,-0.390858 -0.648559,-0.538295z"/>
  <path class="fil0" d="M5.97333 3.95065c0,0.298764 -0.301354,0.559028 -0.788567,0.738295 -0.455161,0.167472 -1.08161,0.271059 -1.77143,0.271059 -0.689827,0 -1.31627,-0.103587 -1.77143,-0.271059 -0.487213,-0.179268 -0.788567,-0.439531 -0.788567,-0.738295l0.213339 0c0,0.199772 0.247854,0.390858 0.648559,0.538295 0.432764,0.159232 1.033,0.25772 1.6981,0.25772 0.665106,0 1.26534,-0.0984882 1.6981,-0.25772 0.400705,-0.147437 0.648559,-0.338524 0.648559,-0.538295l0.213339 0z"/>
  <polygon class="fil0" points="1.06667,2.87602 1.06667,4.03891 0.853331,4.03891 0.853331,2.87602 "/>
  <polygon class="fil0" points="5.97333,2.87602 5.97333,4.03891 5.75999,4.03891 5.75999,2.87602 "/>
  <polygon class="fil0" points="5.17303,2.33287 3.46839,2.96889 2.50611,3.7857 2.36861,3.6232 3.34458,2.79476 3.37625,2.77643 5.09887,2.1337 "/>
  <polygon class="fil0" points="3.47083,2.78643 4.68678,3.57062 4.57178,3.74979 3.35583,2.9656 "/>
  <path class="fil1" d="M3.37625 2.77643l1.43012 -0.533598c-0.39185,-0.102528 -0.872579,-0.162835 -1.39304,-0.162835 -0.665106,0 -1.26534,0.0984882 -1.6981,0.25772 -0.400705,0.147437 -0.648559,0.338524 -0.648559,0.538295 0,0.199772 0.247854,0.390858 0.648559,0.538295 0.198394,0.0729961 0.43198,0.133228 0.690874,0.177055l0.938476 -0.796602 0.0316693 -0.0183307z"/>
  <path class="fil2" d="M5.13573 2.34678l-1.48657 0.554657 1.00074 0.645394c0.168642,-0.037189 0.323594,-0.0817717 0.461531,-0.132524 0.399783,-0.147098 0.647417,-0.337646 0.648555,-0.536917l3.93701e-006 -0.00137795c0,-0.195701 -0.237858,-0.383071 -0.624264,-0.529232z"/>
  <path class="fil3" d="M4.34506 3.60357l-0.923067 -0.595299 -0.734031 0.623063c0.22863,0.026437 0.472303,0.0406969 0.725366,0.0406969 0.330839,0 0.645626,-0.0243701 0.931732,-0.0684606z"/>
  <path class="fil4" d="M5.18476 3.61431c-0.455161,0.167472 -1.08161,0.271059 -1.77143,0.271059 -0.689827,0 -1.31627,-0.103587 -1.77143,-0.271059 -0.242559,-0.089248 -0.439051,-0.198575 -0.575228,-0.322728l0 0.659063c0,0.199772 0.247854,0.390858 0.648559,0.538295 0.432764,0.159232 1.033,0.25772 1.6981,0.25772 0.665106,0 1.26534,-0.0984882 1.6981,-0.25772 0.399783,-0.147098 0.647417,-0.337646 0.648555,-0.536917l3.93701e-006 -0.00137795 -3.93701e-006 -0.659059c-0.136177,0.124154 -0.332669,0.233476 -0.575224,0.322724z"/>
 </g>
 <rect class="fil5" width="6.82666" height="6.82666"/>
</svg>
